<?xml version="1.0" encoding="UTF-8" standalone="no"?>
<!-- Created with Inkscape (http://www.inkscape.org/) -->

<svg
   xmlns:dc="http://purl.org/dc/elements/1.1/"
   xmlns:cc="http://creativecommons.org/ns#"
   xmlns:rdf="http://www.w3.org/1999/02/22-rdf-syntax-ns#"
   xmlns:svg="http://www.w3.org/2000/svg"
   xmlns="http://www.w3.org/2000/svg"
   xmlns:sodipodi="http://sodipodi.sourceforge.net/DTD/sodipodi-0.dtd"
   xmlns:inkscape="http://www.inkscape.org/namespaces/inkscape"
   version="1.1"
   id="svg43768"
   xml:space="preserve"
   width="793.70135"
   height="1122.52"
   viewBox="0 0 793.70135 1122.52"
   sodipodi:docname="low-poly-publicdomainvectors.org.svg"
   inkscape:version="0.92.4 (5da689c313, 2019-01-14)"><metadata
     id="metadata43774"><rdf:RDF><cc:Work
         rdf:about=""><dc:format>image/svg+xml</dc:format><dc:type
           rdf:resource="http://purl.org/dc/dcmitype/StillImage" /><dc:title></dc:title></cc:Work></rdf:RDF></metadata><defs
     id="defs43772"><clipPath
       clipPathUnits="userSpaceOnUse"
       id="clipPath43784"><path
         d="M 0,841.89 H 595.276 V 0 H 0 Z"
         id="path43782"
         inkscape:connector-curvature="0" /></clipPath></defs><sodipodi:namedview
     pagecolor="#ffffff"
     bordercolor="#666666"
     borderopacity="1"
     objecttolerance="10"
     gridtolerance="10"
     guidetolerance="10"
     inkscape:pageopacity="0"
     inkscape:pageshadow="2"
     inkscape:window-width="797"
     inkscape:window-height="480"
     id="namedview43770"
     showgrid="false"
     inkscape:zoom="0.21024124"
     inkscape:cx="396.85068"
     inkscape:cy="561.26001"
     inkscape:window-x="0"
     inkscape:window-y="0"
     inkscape:window-maximized="0"
     inkscape:current-layer="g43776" /><g
     id="g43776"
     inkscape:groupmode="layer"
     inkscape:label="low-poly-publicdomainvectors.org"
     transform="matrix(1.3333333,0,0,-1.3333333,0,1122.52)"><g
       id="g43778"><g
         id="g43780"
         clip-path="url(#clipPath43784)"><path
           d="m 573.597,841.938 c -29.793,-32.969 -53.784,-59.516 -53.784,-59.516 0,0 63.307,-42.922 77.806,-52.752 v 112.268 z"
           style="fill:#cb9ae0;fill-opacity:1;fill-rule:nonzero;stroke:none"
           id="path43786"
           inkscape:connector-curvature="0" /><path
           d="m 573.597,841.938 c -29.793,-32.969 -53.784,-59.516 -53.784,-59.516 0,0 63.307,-42.922 77.806,-52.752 v 112.268 z"
           style="fill:none;stroke:#cb9ae0;stroke-width:1.03299999;stroke-linecap:butt;stroke-linejoin:miter;stroke-miterlimit:4;stroke-dasharray:none;stroke-opacity:1"
           id="path43788"
           inkscape:connector-curvature="0" /><path
           d="m 513.581,841.938 c 3.466,-33.105 6.232,-59.516 6.232,-59.516 0,0 23.991,26.547 53.784,59.516 z"
           style="fill:#c98bd6;fill-opacity:1;fill-rule:nonzero;stroke:none"
           id="path43790"
           inkscape:connector-curvature="0" /><path
           d="m 513.581,841.938 c 3.466,-33.105 6.232,-59.516 6.232,-59.516 0,0 23.991,26.547 53.784,59.516 z"
           style="fill:none;stroke:#c98bd6;stroke-width:1.03299999;stroke-linecap:butt;stroke-linejoin:miter;stroke-miterlimit:4;stroke-dasharray:none;stroke-opacity:1"
           id="path43792"
           inkscape:connector-curvature="0" /><path
           d="m 597.619,721.032 c -10.891,-24.688 -48.385,-109.673 -48.385,-109.673 0,0 21.347,-5.888 48.385,-13.347 z"
           style="fill:#cabdff;fill-opacity:1;fill-rule:nonzero;stroke:none"
           id="path43794"
           inkscape:connector-curvature="0" /><path
           d="m 597.619,721.032 c -10.891,-24.688 -48.385,-109.673 -48.385,-109.673 0,0 21.347,-5.888 48.385,-13.347 z"
           style="fill:none;stroke:#cabdff;stroke-width:1.03299999;stroke-linecap:butt;stroke-linejoin:miter;stroke-miterlimit:4;stroke-dasharray:none;stroke-opacity:1"
           id="path43796"
           inkscape:connector-curvature="0" /><path
           d="m 597.619,471.253 c -22.872,-19.961 -40.174,-35.061 -40.174,-35.061 0,0 17.428,1.322 40.174,3.046 z"
           style="fill:#bac0ff;fill-opacity:1;fill-rule:nonzero;stroke:none"
           id="path43798"
           inkscape:connector-curvature="0" /><path
           d="m 597.619,471.253 c -22.872,-19.961 -40.174,-35.061 -40.174,-35.061 0,0 17.428,1.322 40.174,3.046 z"
           style="fill:none;stroke:#bac0ff;stroke-width:1.03299999;stroke-linecap:butt;stroke-linejoin:miter;stroke-miterlimit:4;stroke-dasharray:none;stroke-opacity:1"
           id="path43800"
           inkscape:connector-curvature="0" /><path
           d="m 597.619,598.012 c -27.038,7.459 -48.385,13.347 -48.385,13.347 l 8.211,-175.167 c 0,0 17.302,15.1 40.174,35.061 z"
           style="fill:#c6c9ff;fill-opacity:1;fill-rule:nonzero;stroke:none"
           id="path43802"
           inkscape:connector-curvature="0" /><path
           d="m 597.619,598.012 c -27.038,7.459 -48.385,13.347 -48.385,13.347 l 8.211,-175.167 c 0,0 17.302,15.1 40.174,35.061 z"
           style="fill:none;stroke:#c6c9ff;stroke-width:1.03299999;stroke-linecap:butt;stroke-linejoin:miter;stroke-miterlimit:4;stroke-dasharray:none;stroke-opacity:1"
           id="path43804"
           inkscape:connector-curvature="0" /><path
           d="m 597.619,301.491 c -66.393,5.938 -136.652,12.221 -136.652,12.221 0,0 103.044,-151.931 136.652,-201.483 z"
           style="fill:#86afff;fill-opacity:1;fill-rule:nonzero;stroke:none"
           id="path43806"
           inkscape:connector-curvature="0" /><path
           d="m 597.619,301.491 c -66.393,5.938 -136.652,12.221 -136.652,12.221 0,0 103.044,-151.931 136.652,-201.483 z"
           style="fill:none;stroke:#86afff;stroke-width:1.03299999;stroke-linecap:butt;stroke-linejoin:miter;stroke-miterlimit:4;stroke-dasharray:none;stroke-opacity:1"
           id="path43808"
           inkscape:connector-curvature="0" /><path
           d="m 597.619,398.838 c -22.975,21.363 -40.174,37.354 -40.174,37.354 l -96.478,-122.48 c 0,0 70.259,-6.283 136.652,-12.221 z"
           style="fill:#a8c1ff;fill-opacity:1;fill-rule:nonzero;stroke:none"
           id="path43810"
           inkscape:connector-curvature="0" /><path
           d="m 597.619,398.838 c -22.975,21.363 -40.174,37.354 -40.174,37.354 l -96.478,-122.48 c 0,0 70.259,-6.283 136.652,-12.221 z"
           style="fill:none;stroke:#a8c1ff;stroke-width:1.03299999;stroke-linecap:butt;stroke-linejoin:miter;stroke-miterlimit:4;stroke-dasharray:none;stroke-opacity:1"
           id="path43812"
           inkscape:connector-curvature="0" /><path
           d="m 597.619,439.238 c -22.746,-1.724 -40.174,-3.046 -40.174,-3.046 0,0 17.199,-15.991 40.174,-37.354 z"
           style="fill:#abbaff;fill-opacity:1;fill-rule:nonzero;stroke:none"
           id="path43814"
           inkscape:connector-curvature="0" /><path
           d="m 597.619,439.238 c -22.746,-1.724 -40.174,-3.046 -40.174,-3.046 0,0 17.199,-15.991 40.174,-37.354 z"
           style="fill:none;stroke:#abbaff;stroke-width:1.03299999;stroke-linecap:butt;stroke-linejoin:miter;stroke-miterlimit:4;stroke-dasharray:none;stroke-opacity:1"
           id="path43816"
           inkscape:connector-curvature="0" /><path
           d="M 597.619,85.646 C 580.053,66.908 543.937,28.384 517.302,-0.026 h 80.317 z"
           style="fill:#5187fe;fill-opacity:1;fill-rule:nonzero;stroke:none"
           id="path43818"
           inkscape:connector-curvature="0" /><path
           d="M 597.619,85.646 C 580.053,66.908 543.937,28.384 517.302,-0.026 h 80.317 z"
           style="fill:none;stroke:#5187fe;stroke-width:1.03299999;stroke-linecap:butt;stroke-linejoin:miter;stroke-miterlimit:4;stroke-dasharray:none;stroke-opacity:1"
           id="path43820"
           inkscape:connector-curvature="0" /><path
           d="m 597.619,96.203 c -34.755,-1.999 -144.18,-8.294 -144.18,-8.294 0,0 13.29,-51.714 22.599,-87.935 h 41.264 c 26.635,28.41 62.751,66.934 80.317,85.672 z"
           style="fill:#5e99ff;fill-opacity:1;fill-rule:nonzero;stroke:none"
           id="path43822"
           inkscape:connector-curvature="0" /><path
           d="m 597.619,96.203 c -34.755,-1.999 -144.18,-8.294 -144.18,-8.294 0,0 13.29,-51.714 22.599,-87.935 h 41.264 c 26.635,28.41 62.751,66.934 80.317,85.672 z"
           style="fill:none;stroke:#5e99ff;stroke-width:1.03299999;stroke-linecap:butt;stroke-linejoin:miter;stroke-miterlimit:4;stroke-dasharray:none;stroke-opacity:1"
           id="path43824"
           inkscape:connector-curvature="0" /><path
           d="M 597.619,112.229 C 564.011,161.781 460.967,313.712 460.967,313.712 L 453.439,87.909 c 0,0 109.425,6.295 144.18,8.294 z"
           style="fill:#76afff;fill-opacity:1;fill-rule:nonzero;stroke:none"
           id="path43826"
           inkscape:connector-curvature="0" /><path
           d="M 597.619,112.229 C 564.011,161.781 460.967,313.712 460.967,313.712 L 453.439,87.909 c 0,0 109.425,6.295 144.18,8.294 z"
           style="fill:none;stroke:#76afff;stroke-width:1.03299999;stroke-linecap:butt;stroke-linejoin:miter;stroke-miterlimit:4;stroke-dasharray:none;stroke-opacity:1"
           id="path43828"
           inkscape:connector-curvature="0" /><path
           d="m 389.805,263.077 63.634,-175.168 7.528,225.803 z"
           style="fill:#8ec2ff;fill-opacity:1;fill-rule:nonzero;stroke:none"
           id="path43830"
           inkscape:connector-curvature="0" /><path
           d="m 389.805,263.077 63.634,-175.168 7.528,225.803 z"
           style="fill:none;stroke:#8ec2ff;stroke-width:1.03299999;stroke-linecap:butt;stroke-linejoin:miter;stroke-miterlimit:4;stroke-dasharray:none;stroke-opacity:1"
           id="path43832"
           inkscape:connector-curvature="0" /><path
           d="m 597.619,729.67 c -14.499,9.83 -77.806,52.752 -77.806,52.752 l 29.421,-171.063 c 0,0 37.494,84.985 48.385,109.673 z"
           style="fill:#d3baff;fill-opacity:1;fill-rule:nonzero;stroke:none"
           id="path43834"
           inkscape:connector-curvature="0" /><path
           d="m 597.619,729.67 c -14.499,9.83 -77.806,52.752 -77.806,52.752 l 29.421,-171.063 c 0,0 37.494,84.985 48.385,109.673 z"
           style="fill:none;stroke:#d3baff;stroke-width:1.03299999;stroke-linecap:butt;stroke-linejoin:miter;stroke-miterlimit:4;stroke-dasharray:none;stroke-opacity:1"
           id="path43836"
           inkscape:connector-curvature="0" /><path
           d="M 519.813,782.422 386.383,758.473 549.234,611.359 Z"
           style="fill:#d9c2ff;fill-opacity:1;fill-rule:nonzero;stroke:none"
           id="path43838"
           inkscape:connector-curvature="0" /><path
           d="M 519.813,782.422 386.383,758.473 549.234,611.359 Z"
           style="fill:none;stroke:#d9c2ff;stroke-width:1.03299999;stroke-linecap:butt;stroke-linejoin:miter;stroke-miterlimit:4;stroke-dasharray:none;stroke-opacity:1"
           id="path43840"
           inkscape:connector-curvature="0" /><path
           d="M 386.383,758.473 380.225,583.99 549.234,611.359 Z"
           style="fill:#dad5ff;fill-opacity:1;fill-rule:nonzero;stroke:none"
           id="path43842"
           inkscape:connector-curvature="0" /><path
           d="M 386.383,758.473 380.225,583.99 549.234,611.359 Z"
           style="fill:none;stroke:#dad5ff;stroke-width:1.03299999;stroke-linecap:butt;stroke-linejoin:miter;stroke-miterlimit:4;stroke-dasharray:none;stroke-opacity:1"
           id="path43844"
           inkscape:connector-curvature="0" /><path
           d="m 372.014,390.348 88.953,-76.636 96.478,122.48 z"
           style="fill:#b9d4ff;fill-opacity:1;fill-rule:nonzero;stroke:none"
           id="path43846"
           inkscape:connector-curvature="0" /><path
           d="m 372.014,390.348 88.953,-76.636 96.478,122.48 z"
           style="fill:none;stroke:#b9d4ff;stroke-width:1.03299999;stroke-linecap:butt;stroke-linejoin:miter;stroke-miterlimit:4;stroke-dasharray:none;stroke-opacity:1"
           id="path43848"
           inkscape:connector-curvature="0" /><path
           d="M 549.234,611.359 380.225,583.99 557.445,436.192 Z"
           style="fill:#d0d9ff;fill-opacity:1;fill-rule:nonzero;stroke:none"
           id="path43850"
           inkscape:connector-curvature="0" /><path
           d="M 549.234,611.359 380.225,583.99 557.445,436.192 Z"
           style="fill:none;stroke:#d0d9ff;stroke-width:1.03299999;stroke-linecap:butt;stroke-linejoin:miter;stroke-miterlimit:4;stroke-dasharray:none;stroke-opacity:1"
           id="path43852"
           inkscape:connector-curvature="0" /><path
           d="m 380.225,583.99 -8.211,-193.642 185.431,45.844 z"
           style="fill:#cadeff;fill-opacity:1;fill-rule:nonzero;stroke:none"
           id="path43854"
           inkscape:connector-curvature="0" /><path
           d="m 380.225,583.99 -8.211,-193.642 185.431,45.844 z"
           style="fill:none;stroke:#cadeff;stroke-width:1.03299999;stroke-linecap:butt;stroke-linejoin:miter;stroke-miterlimit:4;stroke-dasharray:none;stroke-opacity:1"
           id="path43856"
           inkscape:connector-curvature="0" /><path
           d="m 430.79,841.938 c -23.718,-44.58 -44.407,-83.465 -44.407,-83.465 l 133.43,23.949 c 0,0 -2.766,26.411 -6.232,59.516 z"
           style="fill:#d7aaed;fill-opacity:1;fill-rule:nonzero;stroke:none"
           id="path43858"
           inkscape:connector-curvature="0" /><path
           d="m 430.79,841.938 c -23.718,-44.58 -44.407,-83.465 -44.407,-83.465 l 133.43,23.949 c 0,0 -2.766,26.411 -6.232,59.516 z"
           style="fill:none;stroke:#d7aaed;stroke-width:1.03299999;stroke-linecap:butt;stroke-linejoin:miter;stroke-miterlimit:4;stroke-dasharray:none;stroke-opacity:1"
           id="path43860"
           inkscape:connector-curvature="0" /><path
           d="m 344.306,841.938 c 20.981,-41.62 42.077,-83.465 42.077,-83.465 0,0 20.689,38.885 44.407,83.465 z"
           style="fill:#d8a7e7;fill-opacity:1;fill-rule:nonzero;stroke:none"
           id="path43862"
           inkscape:connector-curvature="0" /><path
           d="m 344.306,841.938 c 20.981,-41.62 42.077,-83.465 42.077,-83.465 0,0 20.689,38.885 44.407,83.465 z"
           style="fill:none;stroke:#d8a7e7;stroke-width:1.03299999;stroke-linecap:butt;stroke-linejoin:miter;stroke-miterlimit:4;stroke-dasharray:none;stroke-opacity:1"
           id="path43864"
           inkscape:connector-curvature="0" /><path
           d="m 389.805,263.077 -0.684,-178.589 64.318,3.421 z"
           style="fill:#75b6ff;fill-opacity:1;fill-rule:nonzero;stroke:none"
           id="path43866"
           inkscape:connector-curvature="0" /><path
           d="m 389.805,263.077 -0.684,-178.589 64.318,3.421 z"
           style="fill:none;stroke:#75b6ff;stroke-width:1.03299999;stroke-linecap:butt;stroke-linejoin:miter;stroke-miterlimit:4;stroke-dasharray:none;stroke-opacity:1"
           id="path43868"
           inkscape:connector-curvature="0" /><path
           d="m 476.038,-0.026 c -9.309,36.221 -22.599,87.935 -22.599,87.935 l -64.318,-3.421 c 0,0 39.714,-49.358 68,-84.514 z"
           style="fill:#64a1ff;fill-opacity:1;fill-rule:nonzero;stroke:none"
           id="path43870"
           inkscape:connector-curvature="0" /><path
           d="m 476.038,-0.026 c -9.309,36.221 -22.599,87.935 -22.599,87.935 l -64.318,-3.421 c 0,0 39.714,-49.358 68,-84.514 z"
           style="fill:none;stroke:#64a1ff;stroke-width:1.03299999;stroke-linecap:butt;stroke-linejoin:miter;stroke-miterlimit:4;stroke-dasharray:none;stroke-opacity:1"
           id="path43872"
           inkscape:connector-curvature="0" /><path
           d="m 457.121,-0.026 c -28.286,35.156 -68,84.514 -68,84.514 0,0 -53.222,-66.527 -67.612,-84.514 z"
           style="fill:#64a1ff;fill-opacity:1;fill-rule:nonzero;stroke:none"
           id="path43874"
           inkscape:connector-curvature="0" /><path
           d="m 457.121,-0.026 c -28.286,35.156 -68,84.514 -68,84.514 0,0 -53.222,-66.527 -67.612,-84.514 z"
           style="fill:none;stroke:#64a1ff;stroke-width:1.03299999;stroke-linecap:butt;stroke-linejoin:miter;stroke-miterlimit:4;stroke-dasharray:none;stroke-opacity:1"
           id="path43876"
           inkscape:connector-curvature="0" /><path
           d="m 372.014,390.348 17.791,-127.271 71.162,50.635 z"
           style="fill:#add5ff;fill-opacity:1;fill-rule:nonzero;stroke:none"
           id="path43878"
           inkscape:connector-curvature="0" /><path
           d="m 372.014,390.348 17.791,-127.271 71.162,50.635 z"
           style="fill:none;stroke:#add5ff;stroke-width:1.03299999;stroke-linecap:butt;stroke-linejoin:miter;stroke-miterlimit:4;stroke-dasharray:none;stroke-opacity:1"
           id="path43880"
           inkscape:connector-curvature="0" /><path
           d="m 233.796,451.246 138.218,-60.898 8.211,193.642 z"
           style="fill:#d5edff;fill-opacity:1;fill-rule:nonzero;stroke:none"
           id="path43882"
           inkscape:connector-curvature="0" /><path
           d="m 233.796,451.246 138.218,-60.898 8.211,193.642 z"
           style="fill:none;stroke:#d5edff;stroke-width:1.03299999;stroke-linecap:butt;stroke-linejoin:miter;stroke-miterlimit:4;stroke-dasharray:none;stroke-opacity:1"
           id="path43884"
           inkscape:connector-curvature="0" /><path
           d="m 273.803,841.938 c 46.868,-34.747 112.58,-83.465 112.58,-83.465 0,0 -21.096,41.845 -42.077,83.465 z"
           style="fill:#e5baf3;fill-opacity:1;fill-rule:nonzero;stroke:none"
           id="path43886"
           inkscape:connector-curvature="0" /><path
           d="m 273.803,841.938 c 46.868,-34.747 112.58,-83.465 112.58,-83.465 0,0 -21.096,41.845 -42.077,83.465 z"
           style="fill:none;stroke:#e5baf3;stroke-width:1.03299999;stroke-linecap:butt;stroke-linejoin:miter;stroke-miterlimit:4;stroke-dasharray:none;stroke-opacity:1"
           id="path43888"
           inkscape:connector-curvature="0" /><path
           d="m 225.097,841.938 c -3.423,-46.109 -9.092,-122.467 -9.092,-122.467 l 170.378,39.002 c 0,0 -65.712,48.718 -112.58,83.465 z"
           style="fill:#eecfff;fill-opacity:1;fill-rule:nonzero;stroke:none"
           id="path43890"
           inkscape:connector-curvature="0" /><path
           d="m 225.097,841.938 c -3.423,-46.109 -9.092,-122.467 -9.092,-122.467 l 170.378,39.002 c 0,0 -65.712,48.718 -112.58,83.465 z"
           style="fill:none;stroke:#eecfff;stroke-width:1.03299999;stroke-linecap:butt;stroke-linejoin:miter;stroke-miterlimit:4;stroke-dasharray:none;stroke-opacity:1"
           id="path43892"
           inkscape:connector-curvature="0" /><path
           d="m 216.005,719.471 164.22,-135.481 6.158,174.483 z"
           style="fill:#e5dcff;fill-opacity:1;fill-rule:nonzero;stroke:none"
           id="path43894"
           inkscape:connector-curvature="0" /><path
           d="m 216.005,719.471 164.22,-135.481 6.158,174.483 z"
           style="fill:none;stroke:#e5dcff;stroke-width:1.03299999;stroke-linecap:butt;stroke-linejoin:miter;stroke-miterlimit:4;stroke-dasharray:none;stroke-opacity:1"
           id="path43896"
           inkscape:connector-curvature="0" /><path
           d="m 321.509,-0.026 c 14.39,17.987 67.612,84.514 67.612,84.514 l -268.226,37.634 c 0,0 155.257,-99.73 190.156,-122.148 z"
           style="fill:#81b9ff;fill-opacity:1;fill-rule:nonzero;stroke:none"
           id="path43898"
           inkscape:connector-curvature="0" /><path
           d="m 321.509,-0.026 c 14.39,17.987 67.612,84.514 67.612,84.514 l -268.226,37.634 c 0,0 155.257,-99.73 190.156,-122.148 z"
           style="fill:none;stroke:#81b9ff;stroke-width:1.03299999;stroke-linecap:butt;stroke-linejoin:miter;stroke-miterlimit:4;stroke-dasharray:none;stroke-opacity:1"
           id="path43900"
           inkscape:connector-curvature="0" /><path
           d="m 120.895,122.122 268.226,-37.634 0.684,178.589 z"
           style="fill:#89c6ff;fill-opacity:1;fill-rule:nonzero;stroke:none"
           id="path43902"
           inkscape:connector-curvature="0" /><path
           d="m 120.895,122.122 268.226,-37.634 0.684,178.589 z"
           style="fill:none;stroke:#89c6ff;stroke-width:1.03299999;stroke-linecap:butt;stroke-linejoin:miter;stroke-miterlimit:4;stroke-dasharray:none;stroke-opacity:1"
           id="path43904"
           inkscape:connector-curvature="0" /><path
           d="M 162.634,312.343 120.895,122.122 389.805,263.077 Z"
           style="fill:#b0deff;fill-opacity:1;fill-rule:nonzero;stroke:none"
           id="path43906"
           inkscape:connector-curvature="0" /><path
           d="M 162.634,312.343 120.895,122.122 389.805,263.077 Z"
           style="fill:none;stroke:#b0deff;stroke-width:1.03299999;stroke-linecap:butt;stroke-linejoin:miter;stroke-miterlimit:4;stroke-dasharray:none;stroke-opacity:1"
           id="path43908"
           inkscape:connector-curvature="0" /><path
           d="M 372.014,390.348 162.634,312.343 389.805,263.077 Z"
           style="fill:#b9e1ff;fill-opacity:1;fill-rule:nonzero;stroke:none"
           id="path43910"
           inkscape:connector-curvature="0" /><path
           d="M 372.014,390.348 162.634,312.343 389.805,263.077 Z"
           style="fill:none;stroke:#b9e1ff;stroke-width:1.03299999;stroke-linecap:butt;stroke-linejoin:miter;stroke-miterlimit:4;stroke-dasharray:none;stroke-opacity:1"
           id="path43912"
           inkscape:connector-curvature="0" /><path
           d="M 177.003,573.042 233.796,451.246 380.225,583.99 Z"
           style="fill:#e8f7ff;fill-opacity:1;fill-rule:nonzero;stroke:none"
           id="path43914"
           inkscape:connector-curvature="0" /><path
           d="M 177.003,573.042 233.796,451.246 380.225,583.99 Z"
           style="fill:none;stroke:#e8f7ff;stroke-width:1.03299999;stroke-linecap:butt;stroke-linejoin:miter;stroke-miterlimit:4;stroke-dasharray:none;stroke-opacity:1"
           id="path43916"
           inkscape:connector-curvature="0" /><path
           d="M 216.005,719.471 177.003,573.042 380.225,583.99 Z"
           style="fill:#eeefff;fill-opacity:1;fill-rule:nonzero;stroke:none"
           id="path43918"
           inkscape:connector-curvature="0" /><path
           d="M 216.005,719.471 177.003,573.042 380.225,583.99 Z"
           style="fill:none;stroke:#eeefff;stroke-width:1.03299999;stroke-linecap:butt;stroke-linejoin:miter;stroke-miterlimit:4;stroke-dasharray:none;stroke-opacity:1"
           id="path43920"
           inkscape:connector-curvature="0" /><path
           d="m 233.796,451.246 -71.162,-138.903 209.38,78.005 z"
           style="fill:#d2f0ff;fill-opacity:1;fill-rule:nonzero;stroke:none"
           id="path43922"
           inkscape:connector-curvature="0" /><path
           d="m 233.796,451.246 -71.162,-138.903 209.38,78.005 z"
           style="fill:none;stroke:#d2f0ff;stroke-width:1.03299999;stroke-linecap:butt;stroke-linejoin:miter;stroke-miterlimit:4;stroke-dasharray:none;stroke-opacity:1"
           id="path43924"
           inkscape:connector-curvature="0" /><path
           d="m 311.051,-0.026 c -34.899,22.418 -190.156,122.148 -190.156,122.148 0,0 -1.396,-63.607 -2.681,-122.148 z"
           style="fill:#8fbaff;fill-opacity:1;fill-rule:nonzero;stroke:none"
           id="path43926"
           inkscape:connector-curvature="0" /><path
           d="m 311.051,-0.026 c -34.899,22.418 -190.156,122.148 -190.156,122.148 0,0 -1.396,-63.607 -2.681,-122.148 z"
           style="fill:none;stroke:#8fbaff;stroke-width:1.03299999;stroke-linecap:butt;stroke-linejoin:miter;stroke-miterlimit:4;stroke-dasharray:none;stroke-opacity:1"
           id="path43928"
           inkscape:connector-curvature="0" /><path
           d="m 118.214,-0.026 c 1.285,58.541 2.681,122.148 2.681,122.148 L 30.575,63.276 c 0,0 15.883,-29.606 33.96,-63.302 z"
           style="fill:#a4c6ff;fill-opacity:1;fill-rule:nonzero;stroke:none"
           id="path43930"
           inkscape:connector-curvature="0" /><path
           d="m 118.214,-0.026 c 1.285,58.541 2.681,122.148 2.681,122.148 L 30.575,63.276 c 0,0 15.883,-29.606 33.96,-63.302 z"
           style="fill:none;stroke:#a4c6ff;stroke-width:1.03299999;stroke-linecap:butt;stroke-linejoin:miter;stroke-miterlimit:4;stroke-dasharray:none;stroke-opacity:1"
           id="path43932"
           inkscape:connector-curvature="0" /><path
           d="m 75.735,245.971 45.16,-123.849 41.739,190.221 z"
           style="fill:#c1e9ff;fill-opacity:1;fill-rule:nonzero;stroke:none"
           id="path43934"
           inkscape:connector-curvature="0" /><path
           d="m 75.735,245.971 45.16,-123.849 41.739,190.221 z"
           style="fill:none;stroke:#c1e9ff;stroke-width:1.03299999;stroke-linecap:butt;stroke-linejoin:miter;stroke-miterlimit:4;stroke-dasharray:none;stroke-opacity:1"
           id="path43936"
           inkscape:connector-curvature="0" /><path
           d="M 182.003,841.938 C 136.828,808.056 74.366,761.21 74.366,761.21 l 141.639,-41.739 c 0,0 5.669,76.358 9.092,122.467 z"
           style="fill:#fedcff;fill-opacity:1;fill-rule:nonzero;stroke:none"
           id="path43938"
           inkscape:connector-curvature="0" /><path
           d="M 182.003,841.938 C 136.828,808.056 74.366,761.21 74.366,761.21 l 141.639,-41.739 c 0,0 5.669,76.358 9.092,122.467 z"
           style="fill:none;stroke:#fedcff;stroke-width:1.03299999;stroke-linecap:butt;stroke-linejoin:miter;stroke-miterlimit:4;stroke-dasharray:none;stroke-opacity:1"
           id="path43940"
           inkscape:connector-curvature="0" /><path
           d="m 63.021,841.938 c 5.091,-36.231 11.345,-80.728 11.345,-80.728 0,0 62.462,46.846 107.637,80.728 z"
           style="fill:#ffd3ff;fill-opacity:1;fill-rule:nonzero;stroke:none"
           id="path43942"
           inkscape:connector-curvature="0" /><path
           d="m 63.021,841.938 c 5.091,-36.231 11.345,-80.728 11.345,-80.728 0,0 62.462,46.846 107.637,80.728 z"
           style="fill:none;stroke:#ffd3ff;stroke-width:1.03299999;stroke-linecap:butt;stroke-linejoin:miter;stroke-miterlimit:4;stroke-dasharray:none;stroke-opacity:1"
           id="path43944"
           inkscape:connector-curvature="0" /><path
           d="M 177.003,573.042 44.944,497.774 233.796,451.246 Z"
           style="fill:#f8ffff;fill-opacity:1;fill-rule:nonzero;stroke:none"
           id="path43946"
           inkscape:connector-curvature="0" /><path
           d="M 177.003,573.042 44.944,497.774 233.796,451.246 Z"
           style="fill:none;stroke:#f8ffff;stroke-width:1.03299999;stroke-linecap:butt;stroke-linejoin:miter;stroke-miterlimit:4;stroke-dasharray:none;stroke-opacity:1"
           id="path43948"
           inkscape:connector-curvature="0" /><path
           d="m 44.944,497.774 117.69,-185.431 71.162,138.903 z"
           style="fill:#ebffff;fill-opacity:1;fill-rule:nonzero;stroke:none"
           id="path43950"
           inkscape:connector-curvature="0" /><path
           d="m 44.944,497.774 117.69,-185.431 71.162,138.903 z"
           style="fill:none;stroke:#ebffff;stroke-width:1.03299999;stroke-linecap:butt;stroke-linejoin:miter;stroke-miterlimit:4;stroke-dasharray:none;stroke-opacity:1"
           id="path43952"
           inkscape:connector-curvature="0" /><path
           d="M 74.366,761.21 177.003,573.042 216.005,719.471 Z"
           style="fill:#fff3ff;fill-opacity:1;fill-rule:nonzero;stroke:none"
           id="path43954"
           inkscape:connector-curvature="0" /><path
           d="M 74.366,761.21 177.003,573.042 216.005,719.471 Z"
           style="fill:none;stroke:#fff3ff;stroke-width:1.03299999;stroke-linecap:butt;stroke-linejoin:miter;stroke-miterlimit:4;stroke-dasharray:none;stroke-opacity:1"
           id="path43956"
           inkscape:connector-curvature="0" /><path
           d="M 74.366,761.21 20.311,596.991 177.003,573.042 Z"
           style="fill:#ffffff;fill-opacity:1;fill-rule:nonzero;stroke:none"
           id="path43958"
           inkscape:connector-curvature="0" /><path
           d="M 74.366,761.21 20.311,596.991 177.003,573.042 Z"
           style="fill:none;stroke:#ffffff;stroke-width:1.03299999;stroke-linecap:butt;stroke-linejoin:miter;stroke-miterlimit:4;stroke-dasharray:none;stroke-opacity:1"
           id="path43960"
           inkscape:connector-curvature="0" /><path
           d="m 20.311,596.991 24.633,-99.217 132.059,75.268 z"
           style="fill:#ffffff;fill-opacity:1;fill-rule:nonzero;stroke:none"
           id="path43962"
           inkscape:connector-curvature="0" /><path
           d="m 20.311,596.991 24.633,-99.217 132.059,75.268 z"
           style="fill:none;stroke:#ffffff;stroke-width:1.03299999;stroke-linecap:butt;stroke-linejoin:miter;stroke-miterlimit:4;stroke-dasharray:none;stroke-opacity:1"
           id="path43964"
           inkscape:connector-curvature="0" /><path
           d="m 44.944,497.774 30.791,-251.803 86.899,66.372 z"
           style="fill:#e5feff;fill-opacity:1;fill-rule:nonzero;stroke:none"
           id="path43966"
           inkscape:connector-curvature="0" /><path
           d="m 44.944,497.774 30.791,-251.803 86.899,66.372 z"
           style="fill:none;stroke:#e5feff;stroke-width:1.03299999;stroke-linecap:butt;stroke-linejoin:miter;stroke-miterlimit:4;stroke-dasharray:none;stroke-opacity:1"
           id="path43968"
           inkscape:connector-curvature="0" /><path
           d="m 64.535,-0.026 c -18.077,33.696 -33.96,63.302 -33.96,63.302 0,0 -14.821,-11.644 -30.527,-23.985 V -0.026 Z"
           style="fill:#a9c2ff;fill-opacity:1;fill-rule:nonzero;stroke:none"
           id="path43970"
           inkscape:connector-curvature="0" /><path
           d="m 64.535,-0.026 c -18.077,33.696 -33.96,63.302 -33.96,63.302 0,0 -14.821,-11.644 -30.527,-23.985 V -0.026 Z"
           style="fill:none;stroke:#a9c2ff;stroke-width:1.03299999;stroke-linecap:butt;stroke-linejoin:miter;stroke-miterlimit:4;stroke-dasharray:none;stroke-opacity:1"
           id="path43972"
           inkscape:connector-curvature="0" /><path
           d="m 75.735,245.971 -45.16,-182.695 90.32,58.846 z"
           style="fill:#b2dcff;fill-opacity:1;fill-rule:nonzero;stroke:none"
           id="path43974"
           inkscape:connector-curvature="0" /><path
           d="m 75.735,245.971 -45.16,-182.695 90.32,58.846 z"
           style="fill:none;stroke:#b2dcff;stroke-width:1.03299999;stroke-linecap:butt;stroke-linejoin:miter;stroke-miterlimit:4;stroke-dasharray:none;stroke-opacity:1"
           id="path43976"
           inkscape:connector-curvature="0" /><path
           d="M 0.048,322.773 C 41.886,280.319 75.735,245.971 75.735,245.971 L 44.944,497.774 c 0,0 -18.795,-1.534 -44.896,-3.665 z"
           style="fill:#ffffff;fill-opacity:1;fill-rule:nonzero;stroke:none"
           id="path43978"
           inkscape:connector-curvature="0" /><path
           d="M 0.048,322.773 C 41.886,280.319 75.735,245.971 75.735,245.971 L 44.944,497.774 c 0,0 -18.795,-1.534 -44.896,-3.665 z"
           style="fill:none;stroke:#ffffff;stroke-width:1.03299999;stroke-linecap:butt;stroke-linejoin:miter;stroke-miterlimit:4;stroke-dasharray:none;stroke-opacity:1"
           id="path43980"
           inkscape:connector-curvature="0" /><path
           d="M 0.048,614.925 C 12.383,604.008 20.311,596.991 20.311,596.991 L 74.366,761.21 c 0,0 -33.651,-3.429 -74.318,-7.574 z"
           style="fill:#fffeff;fill-opacity:1;fill-rule:nonzero;stroke:none"
           id="path43982"
           inkscape:connector-curvature="0" /><path
           d="M 0.048,614.925 C 12.383,604.008 20.311,596.991 20.311,596.991 L 74.366,761.21 c 0,0 -33.651,-3.429 -74.318,-7.574 z"
           style="fill:none;stroke:#fffeff;stroke-width:1.03299999;stroke-linecap:butt;stroke-linejoin:miter;stroke-miterlimit:4;stroke-dasharray:none;stroke-opacity:1"
           id="path43984"
           inkscape:connector-curvature="0" /><path
           d="m 0.048,841.938 v -12.653 c 38.719,-35.466 74.318,-68.075 74.318,-68.075 0,0 -6.254,44.497 -11.345,80.728 z"
           style="fill:#ffd8ff;fill-opacity:1;fill-rule:nonzero;stroke:none"
           id="path43986"
           inkscape:connector-curvature="0" /><path
           d="m 0.048,841.938 v -12.653 c 38.719,-35.466 74.318,-68.075 74.318,-68.075 0,0 -6.254,44.497 -11.345,80.728 z"
           style="fill:none;stroke:#ffd8ff;stroke-width:1.03299999;stroke-linecap:butt;stroke-linejoin:miter;stroke-miterlimit:4;stroke-dasharray:none;stroke-opacity:1"
           id="path43988"
           inkscape:connector-curvature="0" /><path
           d="m 0.048,753.636 c 40.667,4.145 74.318,7.574 74.318,7.574 0,0 -35.599,32.609 -74.318,68.075 z"
           style="fill:#ffe9ff;fill-opacity:1;fill-rule:nonzero;stroke:none"
           id="path43990"
           inkscape:connector-curvature="0" /><path
           d="m 0.048,753.636 c 40.667,4.145 74.318,7.574 74.318,7.574 0,0 -35.599,32.609 -74.318,68.075 z"
           style="fill:none;stroke:#ffe9ff;stroke-width:1.03299999;stroke-linecap:butt;stroke-linejoin:miter;stroke-miterlimit:4;stroke-dasharray:none;stroke-opacity:1"
           id="path43992"
           inkscape:connector-curvature="0" /><path
           d="m 0.048,203.284 c 39.244,22.133 75.687,42.687 75.687,42.687 0,0 -32.755,2.194 -75.687,5.07 z"
           style="fill:#ddf6ff;fill-opacity:1;fill-rule:nonzero;stroke:none"
           id="path43994"
           inkscape:connector-curvature="0" /><path
           d="m 0.048,203.284 c 39.244,22.133 75.687,42.687 75.687,42.687 0,0 -32.755,2.194 -75.687,5.07 z"
           style="fill:none;stroke:#ddf6ff;stroke-width:1.03299999;stroke-linecap:butt;stroke-linejoin:miter;stroke-miterlimit:4;stroke-dasharray:none;stroke-opacity:1"
           id="path43996"
           inkscape:connector-curvature="0" /><path
           d="m 0.048,251.041 c 42.932,-2.876 75.687,-5.07 75.687,-5.07 0,0 -33.849,34.348 -75.687,76.802 z"
           style="fill:#fbffff;fill-opacity:1;fill-rule:nonzero;stroke:none"
           id="path43998"
           inkscape:connector-curvature="0" /><path
           d="m 0.048,251.041 c 42.932,-2.876 75.687,-5.07 75.687,-5.07 0,0 -33.849,34.348 -75.687,76.802 z"
           style="fill:none;stroke:#fbffff;stroke-width:1.03299999;stroke-linecap:butt;stroke-linejoin:miter;stroke-miterlimit:4;stroke-dasharray:none;stroke-opacity:1"
           id="path44000"
           inkscape:connector-curvature="0" /><path
           d="M 0.048,84.181 C 17.633,72.139 30.575,63.276 30.575,63.276 l 45.16,182.695 c 0,0 -36.443,-20.554 -75.687,-42.687 z"
           style="fill:#c1e4ff;fill-opacity:1;fill-rule:nonzero;stroke:none"
           id="path44002"
           inkscape:connector-curvature="0" /><path
           d="M 0.048,84.181 C 17.633,72.139 30.575,63.276 30.575,63.276 l 45.16,182.695 c 0,0 -36.443,-20.554 -75.687,-42.687 z"
           style="fill:none;stroke:#c1e4ff;stroke-width:1.03299999;stroke-linecap:butt;stroke-linejoin:miter;stroke-miterlimit:4;stroke-dasharray:none;stroke-opacity:1"
           id="path44004"
           inkscape:connector-curvature="0" /><path
           d="m 0.048,604.301 c 12.395,-4.472 20.263,-7.31 20.263,-7.31 0,0 -7.928,7.017 -20.263,17.934 z"
           style="fill:#ffffff;fill-opacity:1;fill-rule:nonzero;stroke:none"
           id="path44006"
           inkscape:connector-curvature="0" /><path
           d="m 0.048,604.301 c 12.395,-4.472 20.263,-7.31 20.263,-7.31 0,0 -7.928,7.017 -20.263,17.934 z"
           style="fill:none;stroke:#ffffff;stroke-width:1.03299999;stroke-linecap:butt;stroke-linejoin:miter;stroke-miterlimit:4;stroke-dasharray:none;stroke-opacity:1"
           id="path44008"
           inkscape:connector-curvature="0" /><path
           d="m 0.048,494.109 c 26.101,2.131 44.896,3.665 44.896,3.665 l -24.633,99.217 c 0,0 -7.86,-5.149 -20.263,-13.273 z"
           style="fill:#ffffff;fill-opacity:1;fill-rule:nonzero;stroke:none"
           id="path44010"
           inkscape:connector-curvature="0" /><path
           d="m 0.048,494.109 c 26.101,2.131 44.896,3.665 44.896,3.665 l -24.633,99.217 c 0,0 -7.86,-5.149 -20.263,-13.273 z"
           style="fill:none;stroke:#ffffff;stroke-width:1.03299999;stroke-linecap:butt;stroke-linejoin:miter;stroke-miterlimit:4;stroke-dasharray:none;stroke-opacity:1"
           id="path44012"
           inkscape:connector-curvature="0" /><path
           d="m 0.048,39.291 c 15.706,12.341 30.527,23.985 30.527,23.985 0,0 -12.942,8.863 -30.527,20.905 z"
           style="fill:#bdd8ff;fill-opacity:1;fill-rule:nonzero;stroke:none"
           id="path44014"
           inkscape:connector-curvature="0" /><path
           d="m 0.048,39.291 c 15.706,12.341 30.527,23.985 30.527,23.985 0,0 -12.942,8.863 -30.527,20.905 z"
           style="fill:none;stroke:#bdd8ff;stroke-width:1.03299999;stroke-linecap:butt;stroke-linejoin:miter;stroke-miterlimit:4;stroke-dasharray:none;stroke-opacity:1"
           id="path44016"
           inkscape:connector-curvature="0" /><path
           d="m 0.048,583.718 c 12.403,8.124 20.263,13.273 20.263,13.273 0,0 -7.868,2.838 -20.263,7.31 z"
           style="fill:#ffffff;fill-opacity:1;fill-rule:nonzero;stroke:none"
           id="path44018"
           inkscape:connector-curvature="0" /><path
           d="m 0.048,583.718 c 12.403,8.124 20.263,13.273 20.263,13.273 0,0 -7.868,2.838 -20.263,7.31 z"
           style="fill:none;stroke:#ffffff;stroke-width:1.03299999;stroke-linecap:butt;stroke-linejoin:miter;stroke-miterlimit:4;stroke-dasharray:none;stroke-opacity:1"
           id="path44020"
           inkscape:connector-curvature="0" /></g></g></g></svg>